<svg width="40" height="40" viewBox="0 0 40 40" fill="none" xmlns="http://www.w3.org/2000/svg">
<path d="M30 26.6667L36.6667 20L30 13.3333V18.3333H21.5667C21 13.1667 17.8 8.79999 13.3333 6.58332C13.2667 3.84999 11.0667 1.66666 8.33334 1.66666C5.56668 1.66666 3.33334 3.89999 3.33334 6.66666C3.33334 9.43332 5.56668 11.6667 8.33334 11.6667C9.91668 11.6667 11.3 10.9167 12.2167 9.76666C15.3833 11.5 17.6667 14.6167 18.2 18.3333H13.0333C12.3333 16.4 10.5 15 8.33334 15C5.56668 15 3.33334 17.2333 3.33334 20C3.33334 22.7667 5.56668 25 8.33334 25C10.5 25 12.3333 23.6 13.0333 21.6667H18.2C17.6667 25.3833 15.3833 28.5 12.2333 30.2333C11.3 29.0833 9.91668 28.3333 8.33334 28.3333C5.56668 28.3333 3.33334 30.5667 3.33334 33.3333C3.33334 36.1 5.56668 38.3333 8.33334 38.3333C11.0667 38.3333 13.2667 36.15 13.3167 33.4167C17.7833 31.2 20.9833 26.8333 21.55 21.6667H30V26.6667Z" fill="#4BC8C8"/>
</svg>
