<svg width="40" height="40" viewBox="0 0 40 40" fill="none" xmlns="http://www.w3.org/2000/svg">
<path d="M13.75 14.9744H20.75L13.75 21.9487V25.641H26.25V21.9487H19.25L26.25 14.9744V11.2821H13.75V14.9744ZM35 27.6923V17.4359C35 11.1385 30.925 5.86667 23.75 4.47179V3.07692C23.75 1.37436 22.075 0 20 0C17.925 0 16.25 1.37436 16.25 3.07692V4.47179C9.1 5.86667 5 11.1179 5 17.4359V27.6923L0 31.7949V33.8462H40V31.7949L35 27.6923ZM30 29.7436H10V17.4359C10 12.3487 13.775 8.20513 20 8.20513C26.225 8.20513 30 12.3487 30 17.4359V29.7436ZM20 40C22.75 40 25 38.1538 25 35.8974H15C15 38.1538 17.25 40 20 40Z" fill="#4BC8C8"/>
</svg>
