<svg width="40" height="40" viewBox="0 0 40 40" fill="none" xmlns="http://www.w3.org/2000/svg">
<path opacity="0.3" d="M28.3333 10H5V23.3333H28.3333V10ZM16.6667 21.6667C13.9 21.6667 11.6667 19.4333 11.6667 16.6667C11.6667 13.9 13.9 11.6667 16.6667 11.6667C19.4333 11.6667 21.6667 13.9 21.6667 16.6667C21.6667 19.4333 19.4333 21.6667 16.6667 21.6667Z" fill="#4BC8C8"/>
<path d="M28.3334 6.66666H5.00002C3.16669 6.66666 1.66669 8.16666 1.66669 9.99999V23.3333C1.66669 25.1667 3.16669 26.6667 5.00002 26.6667H28.3334C30.1667 26.6667 31.6667 25.1667 31.6667 23.3333V9.99999C31.6667 8.16666 30.1667 6.66666 28.3334 6.66666ZM5.00002 23.3333V9.99999H28.3334V23.3333H5.00002Z" fill="#4BC8C8"/>
<path d="M16.6667 11.6667C13.9 11.6667 11.6667 13.9 11.6667 16.6667C11.6667 19.4333 13.9 21.6667 16.6667 21.6667C19.4334 21.6667 21.6667 19.4333 21.6667 16.6667C21.6667 13.9 19.4334 11.6667 16.6667 11.6667Z" fill="#4BC8C8"/>
<path d="M38.3334 11.6667V30C38.3334 31.8333 36.8334 33.3333 35 33.3333H6.66669C6.66669 31.6667 6.66669 31.8333 6.66669 30H35V11.6667C36.8334 11.6667 36.6667 11.6667 38.3334 11.6667Z" fill="#4BC8C8"/>
</svg>
