<svg width="40" height="40" viewBox="0 0 40 40" fill="none" xmlns="http://www.w3.org/2000/svg">
<path d="M20 0C8.96 0 0 8.96 0 20C0 31.04 8.96 40 20 40C31.04 40 40 31.04 40 20C40 8.96 31.04 0 20 0ZM20 4C25.8 4 30.88 7.12 33.68 11.76C32.82 11.9 31.92 12 31 12C25.2 12 20.12 8.88 17.32 4.24C18.18 4.1 19.08 4 20 4ZM12.16 6.06C10.9 9.84 8.26 13 4.84 14.94C6.1 11.16 8.74 8 12.16 6.06ZM20 36C11.18 36 4 28.82 4 20C4 19.9 4.02 19.8 4.02 19.7C9.22 17.74 13.38 13.72 15.5 8.6C19.16 13.12 24.74 16 31 16C32.5 16 33.94 15.82 35.34 15.52C35.76 16.94 36 18.44 36 20C36 28.82 28.82 36 20 36Z" fill="#4BC8C8"/>
</svg>
